HIERARCHY
ROOT Root
{
  OFFSET 0.0 0.0 0.0
  CHANNELS 6 Xposition Yposition Zposition Zrotation Yrotation Xrotation
  JOINT Hips
  {
    OFFSET 0.0 100.0 0.0
    CHANNELS 6 Xposition Yposition Zposition Zrotation Yrotation Xrotation
    JOINT Spine1
    {
      OFFSET 5.003913 -0.037094 -0.013727
      CHANNELS 3 Zrotation Yrotation Xrotation
      JOINT Spine2
      {
        OFFSET 7.125363 -1e-06 0.0
        CHANNELS 3 Zrotation Yrotation Xrotation
        JOINT Chest
        {
          OFFSET 7.594027 1e-06 0.0
          CHANNELS 3 Zrotation Yrotation Xrotation
          JOINT Neck1
          {
            OFFSET 26.313086 -0.460272 -0.181672
            CHANNELS 3 Zrotation Yrotation Xrotation
            JOINT Neck2
            {
              OFFSET 8.04591 0.0 0.0
              CHANNELS 3 Zrotation Yrotation Xrotation
              JOINT Head
              {
                OFFSET 6.432777 0.0 0.0
                CHANNELS 3 Zrotation Yrotation Xrotation
                JOINT HeadEnd
                {
                  OFFSET 16.169769 0.06451 0.00362
                  CHANNELS 3 Zrotation Yrotation Xrotation
                }
                JOINT Jaw
                {
                  OFFSET 0.108738 3.12938 0.002639
                  CHANNELS 3 Zrotation Yrotation Xrotation
                }
                JOINT LeftEye
                {
                  OFFSET 4.451729 8.166359 3.206392
                  CHANNELS 3 Zrotation Yrotation Xrotation
                }
                JOINT RightEye
                {
                  OFFSET 4.43689 8.135758 -3.222429
                  CHANNELS 3 Zrotation Yrotation Xrotation
                }
              }
            }
          }
          JOINT LeftShoulder
          {
            OFFSET 23.218927 5.195579 1.621656
            CHANNELS 3 Zrotation Yrotation Xrotation
            JOINT LeftArm
            {
              OFFSET 15.902122 2e-06 -2e-06
              CHANNELS 3 Zrotation Yrotation Xrotation
              JOINT LeftForeArm
              {
                OFFSET 28.739304 0.0 -1e-06
                CHANNELS 3 Zrotation Yrotation Xrotation
                JOINT LeftHand
                {
                  OFFSET 27.093979 -4e-06 0.0
                  CHANNELS 3 Zrotation Yrotation Xrotation
                  JOINT LeftHandThumb1
                  {
                    OFFSET 2.276787 3.380274 0.83384
                    CHANNELS 3 Zrotation Yrotation Xrotation
                    JOINT LeftHandThumb2
                    {
                      OFFSET 4.705307 -2e-06 -1e-06
                      CHANNELS 3 Zrotation Yrotation Xrotation
                      JOINT LeftHandThumb3
                      {
                        OFFSET 2.798515 0.0 3e-06
                        CHANNELS 3 Zrotation Yrotation Xrotation
                        JOINT LeftHandThumbEnd
                        {
                          OFFSET 3.180786 5e-06 -4e-06
                          CHANNELS 3 Zrotation Yrotation Xrotation
                        }
                      }
                    }
                  }
                  JOINT LeftHandIndex1
                  {
                    OFFSET 3.24778 2.352677 0.137192
                    CHANNELS 3 Zrotation Yrotation Xrotation
                    JOINT LeftHandIndex2
                    {
                      OFFSET 6.367104 1e-06 0.0
                      CHANNELS 3 Zrotation Yrotation Xrotation
                      JOINT LeftHandIndex3
                      {
                        OFFSET 3.662361 0.0 0.0
                        CHANNELS 3 Zrotation Yrotation Xrotation
                        JOINT LeftHandIndex4
                        {
                          OFFSET 2.329239 4e-06 -4e-06
                          CHANNELS 3 Zrotation Yrotation Xrotation
                          JOINT LeftHandIndexEnd
                          {
                            OFFSET 2.767822 0.0 0.0
                            CHANNELS 3 Zrotation Yrotation Xrotation
                          }
                        }
                      }
                    }
                  }
                  JOINT LeftHandMiddle1
                  {
                    OFFSET 3.163612 0.945023 -0.406112
                    CHANNELS 3 Zrotation Yrotation Xrotation
                    JOINT LeftHandMiddle2
                    {
                      OFFSET 6.276794 3e-06 0.0
                      CHANNELS 3 Zrotation Yrotation Xrotation
                      JOINT LeftHandMiddle3
                      {
                        OFFSET 4.356522 -1e-06 4e-06
                        CHANNELS 3 Zrotation Yrotation Xrotation
                        JOINT LeftHandMiddle4
                        {
                          OFFSET 2.996872 0.0 8e-06
                          CHANNELS 3 Zrotation Yrotation Xrotation
                          JOINT LeftHandMiddleEnd
                          {
                            OFFSET 2.323257 3e-06 -4e-06
                            CHANNELS 3 Zrotation Yrotation Xrotation
                          }
                        }
                      }
                    }
                  }
                  JOINT LeftHandRing1
                  {
                    OFFSET 2.882607 -0.309162 0.107445
                    CHANNELS 3 Zrotation Yrotation Xrotation
                    JOINT LeftHandRing2
                    {
                      OFFSET 6.033195 0.0 4e-06
                      CHANNELS 3 Zrotation Yrotation Xrotation
                      JOINT LeftHandRing3
                      {
                        OFFSET 4.350578 3e-06 0.0
                        CHANNELS 3 Zrotation Yrotation Xrotation
                        JOINT LeftHandRing4
                        {
                          OFFSET 2.651321 1e-06 -7e-06
                          CHANNELS 3 Zrotation Yrotation Xrotation
                          JOINT LeftHandRingEnd
                          {
                            OFFSET 1.937668 1e-06 -4e-06
                            CHANNELS 3 Zrotation Yrotation Xrotation
                          }
                        }
                      }
                    }
                  }
                  JOINT LeftHandPinky1
                  {
                    OFFSET 2.865311 -1.525436 0.575687
                    CHANNELS 3 Zrotation Yrotation Xrotation
                    JOINT LeftHandPinky2
                    {
                      OFFSET 5.549362 1e-06 -8e-06
                      CHANNELS 3 Zrotation Yrotation Xrotation
                      JOINT LeftHandPinky3
                      {
                        OFFSET 3.070969 0.0 -4e-06
                        CHANNELS 3 Zrotation Yrotation Xrotation
                        JOINT LeftHandPinky4
                        {
                          OFFSET 1.549675 1e-06 0.0
                          CHANNELS 3 Zrotation Yrotation Xrotation
                          JOINT LeftHandPinkyEnd
                          {
                            OFFSET 1.952118 0.0 0.0
                            CHANNELS 3 Zrotation Yrotation Xrotation
                          }
                        }
                      }
                    }
                  }
                }
              }
            }
          }
          JOINT RightShoulder
          {
            OFFSET 23.161718 5.296122 -1.380114
            CHANNELS 3 Zrotation Yrotation Xrotation
            JOINT RightArm
            {
              OFFSET -16.027195 -2e-06 1.1e-05
              CHANNELS 3 Zrotation Yrotation Xrotation
              JOINT RightForeArm
              {
                OFFSET -28.736641 4e-06 2e-06
                CHANNELS 3 Zrotation Yrotation Xrotation
                JOINT RightHand
                {
                  OFFSET -27.133617 6e-06 0.0
                  CHANNELS 3 Zrotation Yrotation Xrotation
                  JOINT RightHandThumb1
                  {
                    OFFSET -2.274328 -3.351035 -0.83067
                    CHANNELS 3 Zrotation Yrotation Xrotation
                    JOINT RightHandThumb2
                    {
                      OFFSET -4.703592 -3e-06 2e-06
                      CHANNELS 3 Zrotation Yrotation Xrotation
                      JOINT RightHandThumb3
                      {
                        OFFSET -2.794937 -4e-06 -3e-06
                        CHANNELS 3 Zrotation Yrotation Xrotation
                        JOINT RightHandThumbEnd
                        {
                          OFFSET -3.183853 4e-06 1e-06
                          CHANNELS 3 Zrotation Yrotation Xrotation
                        }
                      }
                    }
                  }
                  JOINT RightHandIndex1
                  {
                    OFFSET -3.253498 -2.33755 -0.127667
                    CHANNELS 3 Zrotation Yrotation Xrotation
                    JOINT RightHandIndex2
                    {
                      OFFSET -6.344433 0.0 0.0
                      CHANNELS 3 Zrotation Yrotation Xrotation
                      JOINT RightHandIndex3
                      {
                        OFFSET -3.654869 0.0 -8e-06
                        CHANNELS 3 Zrotation Yrotation Xrotation
                        JOINT RightHandIndex4
                        {
                          OFFSET -2.327587 -1e-06 0.0
                          CHANNELS 3 Zrotation Yrotation Xrotation
                          JOINT RightHandIndexEnd
                          {
                            OFFSET -2.770004 3e-06 8e-06
                            CHANNELS 3 Zrotation Yrotation Xrotation
                          }
                        }
                      }
                    }
                  }
                  JOINT RightHandMiddle1
                  {
                    OFFSET -3.168224 -0.944764 0.411762
                    CHANNELS 3 Zrotation Yrotation Xrotation
                    JOINT RightHandMiddle2
                    {
                      OFFSET -6.266689 -1e-06 -4e-06
                      CHANNELS 3 Zrotation Yrotation Xrotation
                      JOINT RightHandMiddle3
                      {
                        OFFSET -4.348904 0.0 0.0
                        CHANNELS 3 Zrotation Yrotation Xrotation
                        JOINT RightHandMiddle4
                        {
                          OFFSET -3.000237 2e-06 -4e-06
                          CHANNELS 3 Zrotation Yrotation Xrotation
                          JOINT RightHandMiddleEnd
                          {
                            OFFSET -2.32148 -4e-06 -4e-06
                            CHANNELS 3 Zrotation Yrotation Xrotation
                          }
                        }
                      }
                    }
                  }
                  JOINT RightHandRing1
                  {
                    OFFSET -2.885654 0.293261 -0.119232
                    CHANNELS 3 Zrotation Yrotation Xrotation
                    JOINT RightHandRing2
                    {
                      OFFSET -6.032833 -1e-06 -4e-06
                      CHANNELS 3 Zrotation Yrotation Xrotation
                      JOINT RightHandRing3
                      {
                        OFFSET -4.33881 0.0 -4e-06
                        CHANNELS 3 Zrotation Yrotation Xrotation
                        JOINT RightHandRing4
                        {
                          OFFSET -2.654903 -4e-06 -4e-06
                          CHANNELS 3 Zrotation Yrotation Xrotation
                          JOINT RightHandRingEnd
                          {
                            OFFSET -1.935123 0.0 4e-06
                            CHANNELS 3 Zrotation Yrotation Xrotation
                          }
                        }
                      }
                    }
                  }
                  JOINT RightHandPinky1
                  {
                    OFFSET -2.866241 1.503903 -0.60527
                    CHANNELS 3 Zrotation Yrotation Xrotation
                    JOINT RightHandPinky2
                    {
                      OFFSET -5.553177 -1e-06 0.0
                      CHANNELS 3 Zrotation Yrotation Xrotation
                      JOINT RightHandPinky3
                      {
                        OFFSET -3.062664 -1e-06 -4e-06
                        CHANNELS 3 Zrotation Yrotation Xrotation
                        JOINT RightHandPinky4
                        {
                          OFFSET -1.546532 2e-06 4e-06
                          CHANNELS 3 Zrotation Yrotation Xrotation
                          JOINT RightHandPinkyEnd
                          {
                            OFFSET -1.952339 0.0 -4e-06
                            CHANNELS 3 Zrotation Yrotation Xrotation
                          }
                        }
                      }
                    }
                  }
                }
              }
            }
          }
        }
      }
    }
    JOINT LeftLeg
    {
      OFFSET -8.443107 2.567604 10.043214
      CHANNELS 3 Zrotation Yrotation Xrotation
      JOINT LeftShin
      {
        OFFSET 43.229202 1e-06 -1e-06
        CHANNELS 3 Zrotation Yrotation Xrotation
        JOINT LeftFoot
        {
          OFFSET 42.298607 1e-06 1e-06
          CHANNELS 3 Zrotation Yrotation Xrotation
          JOINT LeftToeBase
          {
            OFFSET 14.165863 1e-06 0.0
            CHANNELS 3 Zrotation Yrotation Xrotation
            JOINT LeftToeEnd
            {
              OFFSET 6.714096 -0.234461 0.0
              CHANNELS 3 Zrotation Yrotation Xrotation
            }
          }
        }
      }
    }
    JOINT RightLeg
    {
      OFFSET -8.303924 2.592729 -10.047277
      CHANNELS 3 Zrotation Yrotation Xrotation
      JOINT RightShin
      {
        OFFSET -43.369686 0.0 0.0
        CHANNELS 3 Zrotation Yrotation Xrotation
        JOINT RightFoot
        {
          OFFSET -42.260784 4e-06 3e-06
          CHANNELS 3 Zrotation Yrotation Xrotation
          JOINT RightToeBase
          {
            OFFSET -14.222237 -2e-06 -2e-06
            CHANNELS 3 Zrotation Yrotation Xrotation
            JOINT RightToeEnd
            {
              OFFSET -6.660072 0.232574 -1e-06
              CHANNELS 3 Zrotation Yrotation Xrotation
            }
          }
        }
      }
    }
  }
}
MOTION
Frames: 4
Frame Time: 0.03333333333333333
0.0 0.0 0.0 0.0 -0.0 0.0 0.64609 100.29744 -0.65662 91.294525 0.665839 89.998535 -1.835849 -0.465302 -0.068999 -11.38798 -0.652755 0.612443 16.928055 -1.267554 -1.928744 16.222422 3.066466 2.620347 -2.536687 -0.81655 -2.29601 -34.570835 -1.781613 -2.191897 9e-06 -0.0 -0.0 0.031108 -0.003426 -0.068305 0.100637 -0.028916 -0.074623 0.091796 0.022882 -0.055601 -118.324738 -71.670868 133.979797 46.656494 -57.84301 6.021582 23.727558 0.524683 0.120345 -5.317815 4.697302 5.35361 17.6366 -26.32263 52.411091 -19.46653 -14.395531 29.410273 2.2e-05 -8.774798 -1.4e-05 16.284964 -17.902817 5.849139 -0.60978 -1.795648 -3.889316 -4.807103 -11.046776 -2.937839 -3.9e-05 -20.975924 -3e-06 -5.019986 -25.033482 -4.031921 5e-06 -1e-06 -0.0 -10.634525 -5.686975 -3.565577 10.573203 -17.922861 -3.113876 -2.4e-05 -13.821155 -5e-06 -0.501813 -31.181395 -4.027053 -11.314816 -59.470695 7.039893 -13.9827 -7.150203 -2.875031 13.772674 -8.401431 -3.218215 0.347661 -34.211395 0.77165 -0.963048 -17.733313 2.620993 1e-06 -2e-06 2e-06 -17.346426 -20.095192 -4.201761 21.757513 -1.638328 3.866447 -1.2e-05 -6.3388 -0.0 -1.697632 -22.591698 -6.194026 0.0 -3e-06 -2e-06 38.402832 -71.050522 160.261658 49.529148 -51.783886 -17.268862 28.388641 -1.307305 -0.195592 -4.355634 8.730794 7.834987 22.182138 -20.375933 49.933334 -16.701752 -16.743555 28.476517 2.1e-05 -12.690626 -4e-06 15.842875 -17.433437 2.900491 -0.105923 -1.513851 -4.275876 -5.039055 -5.612873 -2.953553 -1.4e-05 -11.020538 1.2e-05 -6.111351 -15.895395 -3.840477 0.0 2e-06 -2e-06 -10.283385 -5.680294 -4.341833 11.028285 -11.302386 -2.372614 -1.384301 -14.238593 -6.32012 -0.625491 -26.924267 -3.827598 -3.958352 -49.400063 -3.923382 -13.708543 -7.363484 -3.720932 18.141146 -14.052709 -3.242651 -2.8e-05 -18.787304 1.8e-05 -0.429727 -8.456082 2.555518 0.0 -0.0 3e-06 -15.923584 -20.094482 -5.473558 30.419245 -7.190781 1.735956 -1.1e-05 -8.162941 8e-06 -1.861952 -22.861561 -6.167958 -1e-06 -3e-06 -4e-06 -177.574493 -1.95126 2.795146 5.533864 -0.048351 -0.035491 -77.085197 2.160716 -4.310277 -5.869556 1.694194 2.160348 -0.999997 0.0 -0.0 2.445853 -4.501646 -9.00578 5.601051 -0.000723 0.054482 -76.475876 2.773821 -4.449504 -5.564398 0.651326 1.648827 -1.000002 -0.0 -0.0 
0.0 0.0 0.0 0.0 -0.0 0.0 0.735979 100.338783 -0.721513 91.296455 0.712069 89.861237 -1.80215 -0.469641 -0.112051 -11.354603 -0.608795 0.676966 16.921112 -1.216808 -1.935934 16.150351 3.305799 2.619758 -2.523605 -0.773718 -2.559197 -34.600182 -2.031907 -2.374649 6e-06 0.0 -0.0 0.023116 -0.007893 -0.069288 0.113847 -0.03504 -0.072407 0.103252 0.020313 -0.0618 -117.800575 -71.817642 133.349136 46.912273 -58.093128 5.641356 23.765829 0.517289 0.048657 -5.064415 4.96515 5.557774 17.636591 -26.322716 52.411213 -19.466688 -14.395616 29.41046 4e-06 -8.774845 4e-06 16.270866 -17.914919 5.789672 -0.609777 -1.795654 -3.889331 -4.807102 -11.046827 -2.937858 -1e-05 -20.976076 -9e-06 -5.019991 -25.033707 -4.031929 6e-06 1e-06 -3e-06 -10.634535 -5.686979 -3.565585 10.573272 -17.922968 -3.113914 -6e-06 -13.821251 -6e-06 -0.501768 -31.181709 -4.027074 -11.369184 -59.391125 6.995914 -13.982716 -7.150208 -2.875041 13.772738 -8.401495 -3.218255 0.347721 -34.211678 0.771643 -0.96304 -17.733486 2.621026 -0.0 1e-06 2e-06 -17.34643 -20.095234 -4.201777 21.757586 -1.638359 3.866426 -2e-06 -6.338843 -2e-06 -1.697596 -22.591892 -6.194075 2e-06 -5e-06 -5e-06 37.187973 -71.371483 161.345108 50.852936 -48.965229 -20.00654 31.577 -1.108938 -0.324593 -5.262038 9.77359 6.608074 22.182089 -20.375818 49.933155 -16.701752 -16.743484 28.476416 -4e-06 -12.690575 -6e-06 15.831037 -17.566526 2.930518 -0.105919 -1.513852 -4.275869 -5.039032 -5.612854 -2.953544 7e-06 -11.020498 0.0 -6.11128 -15.895304 -3.840473 -2e-06 0.0 0.0 -10.283353 -5.680276 -4.341824 11.028268 -11.30237 -2.372618 -1.384268 -14.238543 -6.320104 -0.62542 -26.924147 -3.827594 -3.996921 -49.610378 -3.894661 -13.708504 -7.363461 -3.720926 18.141109 -14.052698 -3.242657 1.2e-05 -18.787222 -1e-06 -0.429702 -8.456031 2.555502 3e-06 -3e-06 -0.0 -15.923509 -20.094433 -5.473567 30.419146 -7.190809 1.735938 2e-06 -8.162904 2e-06 -1.861884 -22.861437 -6.167933 -1e-06 -4e-06 -3e-06 -177.532516 -1.880956 2.555806 5.524565 -0.04743 0.020503 -77.178734 2.088913 -4.299554 -5.94824 1.734003 2.170707 -0.999997 -0.0 0.0 2.416384 -4.558646 -8.788176 5.67109 -0.003051 0.085799 -76.448532 2.826301 -4.50261 -5.547683 0.647069 1.653356 -0.999998 -0.0 0.0 
0.0 0.0 0.0 0.0 -0.0 0.0 0.833619 100.350151 -0.798091 91.315208 0.728159 89.802155 -1.814453 -0.511177 -0.141776 -11.36761 -0.584091 0.738221 17.010958 -1.095487 -1.91792 16.103704 3.590524 2.64615 -2.559311 -0.762861 -2.949671 -34.531891 -2.410351 -2.68843 6e-06 0.0 -0.0 0.022615 -0.011229 -0.084511 0.105979 -0.0439 -0.084108 0.096977 0.022163 -0.082624 -117.268585 -72.040977 132.70372 47.082272 -58.337753 5.407044 23.952597 0.467089 -0.032868 -4.959017 5.097719 5.461405 17.636829 -26.322943 52.411579 -19.466967 -14.395747 29.410709 -2e-06 -8.774961 -8e-06 16.238531 -17.940256 5.768744 -0.60978 -1.795677 -3.889361 -4.80715 -11.046962 -2.937888 2.1e-05 -20.976377 -2.8e-05 -5.020032 -25.034098 -4.03199 5e-06 1e-06 2e-06 -10.634649 -5.687037 -3.565612 10.573426 -17.923193 -3.113962 1.4e-05 -13.821431 -1.9e-05 -0.501724 -31.182175 -4.027151 -11.413439 -59.327747 6.96558 -13.982866 -7.15028 -2.875057 13.772911 -8.401606 -3.218288 0.34779 -34.212166 0.771603 -0.963009 -17.733723 2.621042 -2e-06 1e-06 -0.0 -17.346621 -20.095455 -4.201806 21.757845 -1.638399 3.866475 5e-06 -6.338922 -1.3e-05 -1.697589 -22.592213 -6.19417 -1e-06 -3e-06 -3e-06 35.50547 -71.667168 162.734909 52.105259 -45.792686 -23.315756 35.045753 -0.859192 -0.362021 -6.511443 11.766785 5.668161 22.182226 -20.375994 49.93364 -16.702032 -16.743687 28.476799 -1.4e-05 -12.690735 1e-05 15.73644 -17.683571 2.997803 -0.105911 -1.513869 -4.275914 -5.039082 -5.612926 -2.953581 1.5e-05 -11.020645 -1.9e-05 -6.111339 -15.895555 -3.840537 -3e-06 -0.0 -1e-06 -10.283446 -5.680336 -4.341858 11.0284 -11.302505 -2.372678 -1.384266 -14.238738 -6.3202 -0.625379 -26.92458 -3.827693 -4.072671 -49.688671 -3.809805 -13.708629 -7.36354 -3.720953 18.141331 -14.052862 -3.242743 2.9e-05 -18.787464 -3.2e-05 -0.429703 -8.456147 2.555522 2e-06 -4e-06 1e-06 -15.923668 -20.094652 -5.473611 30.419498 -7.190887 1.735908 8e-06 -8.163002 -1.3e-05 -1.861879 -22.861763 -6.168058 1e-06 -3e-06 -1e-06 -177.572586 -1.784266 2.439386 5.578627 -0.054289 0.050791 -77.248405 2.041035 -4.195962 -5.923351 1.737783 2.174025 -1.000006 0.0 0.0 2.333084 -4.661651 -8.669028 5.801557 -0.003164 0.101282 -76.433632 2.962842 -4.58129 -5.513454 0.66197 1.660442 -1.000006 0.0 0.0 
0.0 0.0 0.0 0.0 -0.0 0.0 0.931347 100.337265 -0.878013 91.340355 0.720531 89.780624 -1.840899 -0.573115 -0.152483 -11.411573 -0.56137 0.818781 17.129284 -0.928164 -1.899279 16.092081 3.844577 2.651026 -2.584281 -0.75269 -3.362998 -34.491146 -2.809707 -3.017879 6e-06 -0.0 0.0 0.021691 -0.013472 -0.097812 0.082975 -0.051596 -0.095068 0.080969 0.024413 -0.100311 -116.558517 -72.273933 131.879822 47.334595 -58.564133 5.459014 24.124229 0.479207 -0.096508 -4.947603 5.073682 5.468877 17.636677 -26.322664 52.411015 -19.466681 -14.395587 29.410313 -1e-05 -8.774828 -8e-06 16.178185 -17.925913 5.783281 -0.609775 -1.795653 -3.889322 -4.807077 -11.046799 -2.937844 3.9e-05 -20.976015 -8e-06 -5.019931 -25.033571 -4.031881 5e-06 -0.0 1e-06 -10.63453 -5.68696 -3.565579 10.573297 -17.922962 -3.113903 2.3e-05 -13.821218 0.0 -0.501725 -31.181576 -4.027022 -11.464074 -59.329544 7.000032 -13.982709 -7.150182 -2.875036 13.772738 -8.401505 -3.218236 0.347798 -34.211563 0.771636 -0.962999 -17.733404 2.621031 -1e-06 -1e-06 0.0 -17.346401 -20.095196 -4.201775 21.757559 -1.638403 3.866424 1.3e-05 -6.338824 -2e-06 -1.697543 -22.59177 -6.194023 2e-06 -4e-06 -3e-06 33.540504 -71.972015 164.355789 53.513573 -42.358547 -27.511702 38.72488 -0.598146 -0.23833 -7.723338 14.834602 4.68993 22.18203 -20.375868 49.933285 -16.701872 -16.743557 28.47658 -1.9e-05 -12.69061 2.5e-05 15.51445 -17.736444 3.07127 -0.105915 -1.51386 -4.275882 -5.039032 -5.612883 -2.953553 1.2e-05 -11.02056 -8e-06 -6.111277 -15.895408 -3.840472 1e-06 -1e-06 -0.0 -10.283363 -5.680292 -4.341828 11.028303 -11.302431 -2.372658 -1.384251 -14.238628 -6.320135 -0.625394 -26.924343 -3.82763 -4.152939 -49.65295 -3.682205 -13.708517 -7.363479 -3.720926 18.141165 -14.052772 -3.242713 2.1e-05 -18.787331 -1.4e-05 -0.429706 -8.456087 2.555507 2e-06 -1e-06 -0.0 -15.923524 -20.094505 -5.473568 30.419231 -7.190833 1.735873 3e-06 -8.16295 -8e-06 -1.861877 -22.861588 -6.167972 -2e-06 -5e-06 0.0 -177.670319 -1.676706 2.385494 5.659452 -0.065772 0.072872 -77.274284 1.994906 -4.089252 -5.882741 1.732048 2.173347 -0.999999 -0.0 -0.0 2.239887 -4.775 -8.592007 5.886806 -0.005798 0.101362 -76.413292 3.100273 -4.685953 -5.5691 0.671152 1.659602 -1.000005 -0.0 -0.0 
